<?xml version="1.0" encoding="UTF-8"?>
<svg width="324px" height="432px" viewBox="0 0 324 432" version="1.1" xmlns="http://www.w3.org/2000/svg" xmlns:xlink="http://www.w3.org/1999/xlink">
    <!-- Generator: Sketch 61.2 (89653) - https://sketch.com -->
    <title>b1</title>
    <desc>Created with Sketch.</desc>
    <g id="Page-1" stroke="none" stroke-width="1" fill="none" fill-rule="evenodd">
        <g id="b1" transform="translate(-4.000000, -3.000000)" fill-rule="nonzero">
            <g id="Head/Front/Rad" transform="translate(180.920078, 50.161753) rotate(4.000000) translate(-180.920078, -50.161753) translate(145.920078, 2.661753)">
                <g id="Head" transform="translate(18.316359, 17.329762)" fill="#5C351E">
                    <path d="M8.61668863,35.9695996 C3.8111203,30.3288374 0.558611141,23.4160055 1.10210733,15.6699789 C2.66807119,-6.64848056 33.7361385,-1.73870383 39.7795208,9.52573796 C45.8229031,20.7901798 45.1047922,49.3633705 37.294259,51.3766405 C34.1794292,52.1795298 27.5439155,50.2127726 20.7905107,46.1421897 L25.0294931,76.1313749 L0,76.1313749 L8.61668863,35.9695996 Z" id="Path"></path>
                </g>
                <path d="M61.4991367,25.5704108 C62.3075666,24.7692754 62.7485456,23.6257895 63.1300106,22.5400019 C63.5261616,21.4120821 63.9110826,20.2725397 64.1740956,19.0985442 C64.6996426,16.7528363 64.7046336,14.0552308 63.0312366,12.2337892 C61.6891973,10.7731699 59.6755147,10.1180446 57.8170482,9.9756666 C56.5788705,9.8807134 55.3071921,10.0541198 54.1202732,10.4443101 C52.9426653,10.8313872 51.9275688,11.6028432 50.7859572,12.0816565 C50.7423776,9.5538252 50.3093658,6.9088331 49.0269366,4.7504373 C47.7928864,2.6737117 45.8253751,1.5083295 43.5846756,1.2000169 C41.2848461,0.8836099 39.0138137,1.421782 36.9549196,2.5351734 C36.4394522,2.8140142 35.9287843,3.106138 35.4400981,3.436762 C35.0308919,3.7136311 34.6054632,4.047057 34.1253202,4.1596518 C33.5900788,4.2853222 33.3247618,3.9761794 32.9768933,3.5856778 C32.5690309,3.1278268 32.1095258,2.724561 31.6232394,2.3670595 C29.4730586,0.7865812 26.6519063,0.1367483 24.1608643,1.0841013 C23.0131094,1.5205748 21.8970312,2.2618326 21.1183586,3.2832803 C20.4242534,4.1937935 19.9291359,5.6381203 18.9711536,6.2724908 C18.564635,6.5417844 18.2775283,6.1850093 17.9073901,5.9213196 C17.3514147,5.5251104 16.8211648,5.0879104 16.2584702,4.7024937 C15.4680868,4.1610009 14.6123341,3.7559709 13.6959155,3.5439606 C12.3543563,3.2335725 10.5004014,3.3063181 10.1168245,5.0634198 C9.97283915,5.7234225 10.0832279,6.4292934 10.1297832,7.0942773 C10.1936167,8.0073848 10.2602339,8.9201811 10.3395218,9.8319396 C10.3997077,10.5242161 10.4758279,11.1928321 10.6064706,11.8726556 C10.6761595,12.2350345 10.8942492,12.9106034 10.7388411,13.2735011 C10.5446529,13.7270973 9.64839225,13.4692189 9.26548725,13.4849925 C8.50918035,13.5162285 7.74970585,13.6488517 7.05041715,13.972004 C6.50845645,14.2225145 5.93865855,14.5909122 5.70991385,15.2121035 C5.56928815,15.5936806 5.60634045,15.985635 5.67276565,16.3782121 C5.75243755,16.8493462 5.66134285,17.099234 5.60182885,17.5746228 C4.58606045,17.074432 1.06609945,15.9631161 0.623200551,17.7835199 C0.475759651,18.3896639 0.811533351,19.0745724 1.06773125,19.5857632 C1.51706145,20.4823707 2.10615335,21.3018741 2.70839595,22.0833962 C3.96461985,23.7137898 5.46437085,25.1200315 7.07796635,26.3226686 C5.18743915,27.1631344 4.69395345,29.6421919 6.33077855,31.1192074 C7.05348885,31.7713234 8.02519775,31.9165032 8.93681675,31.8747861 C9.27047875,31.8595313 9.75148575,31.7312666 10.014019,31.78938 C10.1553166,31.820616 10.3065972,31.9403712 10.5023212,31.9537581 C11.788878,32.0418622 13.2412099,31.7318892 14.4988736,31.4464069 C16.7398611,30.9377067 18.8614368,29.8759947 20.5939641,28.258988 C21.0383988,27.8442032 21.4055613,27.6054192 22.0037723,27.6115419 C22.5279749,27.6168344 23.0422904,27.7605614 23.566013,27.7738445 C24.9517277,27.8092314 26.2011363,27.1317946 27.4878851,26.6808965 C27.566693,28.4192151 28.0617145,30.3337419 28.77281,31.8976163 C29.3526869,33.1728952 30.5636034,33.3582356 31.7534981,33.470104 C35.55855,33.8281244 39.3770406,33.4285944 43.1868921,33.4338869 C39.4988522,34.2675036 35.6878489,34.6110993 32.0325416,35.5920751 C30.3802621,36.0353977 31.6419574,37.1489967 32.3484454,37.9209716 C33.5117508,39.1922033 34.3767186,40.7672853 34.9766574,42.4266319 C36.7807934,40.0749051 39.9696842,38.5253515 42.7948681,39.2478262 C45.9164698,40.0459521 48.1145496,44.2673754 46.1184332,47.3022465 C44.9595434,49.064018 42.8667648,49.7441529 41.1254064,50.5010806 C42.4838598,51.9134449 42.8124343,53.9994064 43.6300789,55.7565081 C44.0333338,56.6230211 44.5993881,57.6027516 45.5012161,57.904734 C45.8348781,58.0164986 46.2261342,58.0260458 46.4893394,58.2980375 C46.8154181,58.6347842 46.8930742,59.0112764 47.3094797,59.3007021 C48.9710703,60.4559144 51.5665496,60.3668763 53.0393274,58.8593512 C54.3711916,57.4959682 54.0246669,55.3385064 52.9123324,53.9562364 C54.6829678,53.2181956 57.9088148,52.2689747 57.2051106,49.5104538 C61.0418393,49.2556886 70.3573056,43.033191 65.2078146,38.4862287 C68.0338626,36.8890428 70.6302056,32.9856869 68.8149346,29.5448518 C67.4171256,26.8952936 64.1663206,25.7109208 61.4991367,25.5704108" id="hair" fill="#000000" transform="translate(35.002688, 30.365956) scale(-1, 1) translate(-35.002688, -30.365956) "></path>
            </g>
            <g id="Bottom/Standing/Jogging" transform="translate(4.000000, 185.717748)">
                <polygon id="Leg" fill="#784931" points="136.576421 0 214.070248 129.55569 272.168323 239.084106 284.682133 239.084106 187.337993 5.30873359e-13"></polygon>
                <g id="Accessories/Shoe/Flat-Sneaker" transform="translate(262.723886, 227.536214)" fill="#E4E4E4">
                    <path d="M1.79301173,6.4915537 C0.62626761,9.6061473 0.04289555,11.9365831 0.04289555,13.4828611 C0.04289555,15.3635003 0.35619618,18.1078205 0.98279745,21.7158218 C3.16447086,21.7158218 22.7715371,21.7158218 59.8039962,21.7158218 C61.3325506,16.662479 60.4501804,13.9343419 57.1568854,13.5314103 C53.8635904,13.1284788 51.1277943,12.7646639 48.9494971,12.4399656 L21.6099678,0.2518671 C21.0839009,0.0173438 20.4673207,0.2536867 20.2327974,0.7797536 C20.2287854,0.7887531 20.2249011,0.7978091 20.2211457,0.8069187 L18.4637818,5.069848 C15.415052,6.4923128 12.9376425,7.2035452 11.0315534,7.2035452 C9.4829012,7.2035452 7.34419941,6.5780944 4.61544804,5.3271928 L4.61545374,5.3271803 C3.56828164,4.8471405 2.33023177,5.3068921 1.85019196,6.3540642 C1.82950154,6.3991988 1.81042931,6.4450579 1.79301173,6.4915537 Z" id="shoe"></path>
                </g>
                <path d="M256.032865,221.545314 L280.165526,214.245045 C269.59235,182.636952 256.63342,147.853404 241.288738,109.894402 C225.944056,71.9353994 209.464438,35.3039322 191.849885,2.84217094e-14 L123.69048,2.84217094e-14 C143.274076,44.6578531 164.035313,85.2352452 185.974193,121.732176 C207.913072,158.229107 231.265963,191.500153 256.032865,221.545314 Z" id="Pant" fill="#9B4343"></path>
                <path d="M131.483574,2.84217094e-14 C124.169612,45.5267591 110.062982,103.692464 108.731697,105.487475 C107.844173,106.684149 75.8930942,117.390616 12.8784597,137.606876 L15.5815936,148.641752 C90.7263975,137.799641 130.321301,129.387885 134.366303,123.406484 C140.433807,114.434384 170.729671,43.5545895 182.463825,2.84217094e-14 L131.483574,2.84217094e-14 Z" id="Leg" fill="#915B3C"></path>
                <path d="M35.0291683,128.068071 L39.7904444,145.840535 C95.9943795,150.76997 130.431772,147.208144 143.102622,135.155056 C155.773471,123.101968 170.2145,78.0502828 186.425707,-1.13686838e-13 L121.431644,-1.13686838e-13 C111.160605,63.9126794 105.418425,97.2105109 104.205106,99.8934944 C102.991786,102.576478 79.9331404,111.968003 35.0291683,128.068071 Z" id="Pant" fill="#AF5B5B"></path>
                <g id="Accessories/Shoe/Flat-Sneaker" transform="translate(16.509395, 162.063439) rotate(80.000000) translate(-16.509395, -162.063439) translate(-13.990605, 151.063439)" fill="#E4E4E4">
                    <path d="M1.79301173,6.4915537 C0.62626761,9.6061473 0.04289555,11.9365831 0.04289555,13.4828611 C0.04289555,15.3635003 0.35619618,18.1078205 0.98279745,21.7158218 C3.16447086,21.7158218 22.7715371,21.7158218 59.8039962,21.7158218 C61.3325506,16.662479 60.4501804,13.9343419 57.1568854,13.5314103 C53.8635904,13.1284788 51.1277943,12.7646639 48.9494971,12.4399656 L21.6099678,0.2518671 C21.0839009,0.0173438 20.4673207,0.2536867 20.2327974,0.7797536 C20.2287854,0.7887531 20.2249011,0.7978091 20.2211457,0.8069187 L18.4637818,5.069848 C15.415052,6.4923128 12.9376425,7.2035452 11.0315534,7.2035452 C9.4829012,7.2035452 7.34419941,6.5780944 4.61544804,5.3271928 L4.61545374,5.3271803 C3.56828164,4.8471405 2.33023177,5.3068921 1.85019196,6.3540642 C1.82950154,6.3991988 1.81042931,6.4450579 1.79301173,6.4915537 Z" id="shoe"></path>
                </g>
            </g>
            <g id="Body/Trench-Coat" transform="translate(154.432039, 191.138696) rotate(10.000000) translate(-154.432039, -191.138696) translate(19.432039, 73.138696)">
                <path d="M212.173124,94.1153146 L243.654616,120.804733 C252.485384,123.862803 259.793796,127.410328 265.579851,131.447309 C266.915433,132.846883 268.455388,135.5998 262.571267,134.73118 C256.687146,133.862559 250.458869,133.213532 249.501485,135.174285 C248.5441,137.135038 251.955361,139.798484 250.114915,142.405686 C248.88795,144.14382 244.009153,139.229219 235.478524,127.661882 L203.569051,111.736722 L212.173124,94.1153146 Z M62.7072446,73.4638943 L80.7971874,78.0625522 C56.5815452,118.773292 43.6318712,140.288454 41.9481654,142.60804 C38.1598272,147.827109 40.9113156,157.9002 41.846123,163.177813 C34.1748426,164.545256 37.7616574,153.29197 28.045982,155.171625 C19.1779641,156.887287 11.4631205,162.07869 3.69474158,154.124844 C2.73966504,153.146965 2.15657786,150.216288 5.65599243,148.912227 C14.3743103,145.663337 27.331407,139.403357 29.5143959,136.82375 C32.4912913,133.305996 43.5555742,112.186044 62.7072446,73.4638943 Z" id="Skin" fill="#5C351E" transform="translate(134.887550, 118.378653) rotate(-4.000000) translate(-134.887550, -118.378653) "></path>
                <path d="M218.041997,91.4388947 C222.322135,91.1316164 226.977876,91.840669 231.96947,93.5225255 C234.425683,94.3501164 235.745942,97.0121652 234.918351,99.468378 C234.437693,100.894926 233.338238,101.938296 232.019703,102.400243 C232.974814,103.097038 233.938387,103.789986 234.910523,104.479018 L226.518159,121.611657 C191.202658,104.00331 158.009465,90.7275746 142.884063,61.6576093 C137.807586,51.9009775 139.525829,18.7598762 139.041282,6.70328273 L150.195079,2.12901314 C165.743039,34.2677247 186.784924,65.1009176 218.041997,91.4388947 Z" id="Back-Arm" fill="#242424"></path>
                <path d="M99.8605991,118.795966 C132.647489,122.397786 158.454369,122.397786 177.281237,118.795966 C179.613759,118.349724 179.511327,108.294692 178.429622,105.548568 C161.584668,62.7842666 150.503922,31.478793 150.503922,1.7756729 C147.413084,3.39017178 142.003828,3.63212462 134.276152,2.50153141 C113.508141,33.1115518 103.961825,68.2330479 99.8605991,118.795966 Z" id="Shirt" fill="#000000"></path>
                <path d="M93.7686047,123.851994 C92.6551335,122.804333 92.0746685,121.23383 92.3599826,119.615734 L92.9032734,116.534579 C93.2714462,114.446567 94.9672349,112.926105 96.9694489,112.688237 C97.3194625,111.123614 97.6212422,109.569477 97.8704803,108.02672 C99.9758723,94.9945677 96.3786992,82.2161192 96.5476353,69.6676184 C79.7777663,83.9755631 64.7338752,108.681389 51.4159618,143.785095 L31.7190162,137.989136 C32.4705662,135.197044 33.2490397,132.439245 34.0544368,129.715738 C31.7810093,128.424203 29.124502,122.504744 31.0363804,121.514185 C33.0109281,120.491156 35.1027284,119.771114 37.3056195,119.347312 C55.3658661,64.9506232 84.8998655,25.168186 125.907618,-3.99680289e-13 L131.540937,-3.99680289e-13 L137.768209,-3.99680289e-13 C134.276152,46.1801869 182.509698,147.001238 165.761787,233.106043 C134.805794,240.019061 90.6121081,218.510359 47.593608,235.694393 C49.1943273,201.019067 81.2586187,160.283448 93.7686085,123.851985 L93.7686047,123.851994 Z" id="Coat-Front" fill="#2F2F2F"></path>
                <polygon id="Shade-Lapel" fill-opacity="0.1" fill="#000000" points="130.214865 1.04289555 124.834405 17.5888976 135.669457 29.9926784 125.877301 39.740063 149.567348 80.302957 120.597103 39.8211017 130.214865 29.9926784 120.597103 19.0312358"></polygon>
                <path d="M142.619317,95.9463902 C140.315415,95.9463902 138.447734,94.0787093 138.447734,91.774808 C138.447734,89.4709068 140.315415,87.6032259 142.619317,87.6032259 C144.923218,87.6032259 146.790899,89.4709068 146.790899,91.774808 C146.790899,94.0787093 144.923218,95.9463902 142.619317,95.9463902 Z M147.833794,119.932988 C145.529893,119.932988 143.662212,118.065307 143.662212,115.761406 C143.662212,113.457504 145.529893,111.589823 147.833794,111.589823 C150.137695,111.589823 152.005376,113.457504 152.005376,115.761406 C152.005376,118.065307 150.137695,119.932988 147.833794,119.932988 Z M148.87669,143.919585 C146.572789,143.919585 144.705108,142.051904 144.705108,139.748003 C144.705108,137.444102 146.572789,135.576421 148.87669,135.576421 C151.180591,135.576421 153.048272,137.444102 153.048272,139.748003 C153.048272,142.051904 151.180591,143.919585 148.87669,143.919585 Z" id="Buttons" fill-opacity="0.4" fill="#000000"></path>
            </g>
        </g>
    </g>
</svg>