<?xml version="1.0" encoding="UTF-8"?>
<svg width="270px" height="421px" viewBox="0 0 270 421" version="1.1" xmlns="http://www.w3.org/2000/svg" xmlns:xlink="http://www.w3.org/1999/xlink">
    <!-- Generator: Sketch 61.2 (89653) - https://sketch.com -->
    <title>b2</title>
    <desc>Created with Sketch.</desc>
    <g id="Page-1" stroke="none" stroke-width="1" fill="none" fill-rule="evenodd">
        <g id="b2" transform="translate(-1.000000, 0.000000)" fill-rule="nonzero">
            <g id="Head/Front/Short-1" transform="translate(123.439497, 0.000000)">
                <g id="Head" transform="translate(0.316359, 4.329762)" fill="#4E3620">
                    <path d="M8.61668863,35.9695996 C3.8111203,30.3288374 0.558611141,23.4160055 1.10210733,15.6699789 C2.66807119,-6.64848056 33.7361385,-1.73870383 39.7795208,9.52573796 C45.8229031,20.7901798 45.1047922,49.3633705 37.294259,51.3766405 C34.1794292,52.1795298 27.5439155,50.2127726 20.7905107,46.1421897 L25.0294931,76.1313749 L0,76.1313749 L8.61668863,35.9695996 Z" id="Path"></path>
                </g>
                <path d="M29.0571945,15.4891714 C25.6606189,17.389131 23.2433849,20.9493034 20.333621,25.6191918 C19.6249348,25.3406447 18.8531236,25.1876728 18.0455838,25.1876728 C14.5897319,25.1876728 11.7882105,27.9891943 11.7882105,31.4450461 C11.7882105,33.1994241 12.5101986,34.7851726 13.6732598,35.9213769 C12.2253885,37.9650374 10.6027401,40.0999144 8.7433583,42.30283 C1.8046112,38.139864 -3.3562603,26.0067682 3.2689119,14.2938446 C8.9691547,-9.1679903 41.2691503,5.3945151 47.483401,1.4375805 C48.841717,9.9514752 44.460508,16.816412 29.0571945,15.4891714 Z" id="Hair" fill="#000000"></path>
            </g>
            <g id="Bottom/Standing/Baggy-Pants" transform="translate(0.000000, 171.000000)">
                <polygon id="Leg" fill="#997659" points="122.748003 0 173.935026 129.55569 208.266375 239.084106 221.82308 239.084106 169.337993 5.30873359e-13"></polygon>
                <path d="M112.440679,0 C111.89561,45.5267591 103.946508,106.821151 102.676509,109.659057 C101.829844,111.550995 72.6015778,135.610279 14.9917121,181.836909 L24.328982,191.828889 C92.303286,152.195353 127.863197,129.735517 131.008713,124.44938 C135.726988,116.520175 151.088064,43.5545895 163.420929,0 L112.440679,0 Z" id="Leg" fill="#B28B67"></path>
                <g id="Accessories/Shoe/Flat-Sneaker" transform="translate(28.741649, 203.390284) rotate(50.000000) translate(-28.741649, -203.390284) translate(-1.758351, 192.390284)" fill="#E4E4E4">
                    <path d="M1.79301173,6.4915537 C0.62626761,9.6061473 0.04289555,11.9365831 0.04289555,13.4828611 C0.04289555,15.3635003 0.35619618,18.1078205 0.98279745,21.7158218 C3.16447086,21.7158218 22.7715371,21.7158218 59.8039962,21.7158218 C61.3325506,16.662479 60.4501804,13.9343419 57.1568854,13.5314103 C53.8635904,13.1284788 51.1277943,12.7646639 48.9494971,12.4399656 L21.6099678,0.2518671 C21.0839009,0.0173438 20.4673207,0.2536867 20.2327974,0.7797536 C20.2287854,0.7887531 20.2249011,0.7978091 20.2211457,0.8069187 L18.4637818,5.069848 C15.415052,6.4923128 12.9376425,7.2035452 11.0315534,7.2035452 C9.4829012,7.2035452 7.34419941,6.5780944 4.61544804,5.3271928 L4.61545374,5.3271803 C3.56828164,4.8471405 2.33023177,5.3068921 1.85019196,6.3540642 C1.82950154,6.3991988 1.81042931,6.4450579 1.79301173,6.4915537 Z" id="shoe"></path>
                </g>
                <g id="Accessories/Shoe/Flat-Sneaker" transform="translate(200.922274, 227.536214)" fill="#E4E4E4">
                    <path d="M1.79301173,6.4915537 C0.62626761,9.6061473 0.04289555,11.9365831 0.04289555,13.4828611 C0.04289555,15.3635003 0.35619618,18.1078205 0.98279745,21.7158218 C3.16447086,21.7158218 22.7715371,21.7158218 59.8039962,21.7158218 C61.3325506,16.662479 60.4501804,13.9343419 57.1568854,13.5314103 C53.8635904,13.1284788 51.1277943,12.7646639 48.9494971,12.4399656 L21.6099678,0.2518671 C21.0839009,0.0173438 20.4673207,0.2536867 20.2327974,0.7797536 C20.2287854,0.7887531 20.2249011,0.7978091 20.2211457,0.8069187 L18.4637818,5.069848 C15.415052,6.4923128 12.9376425,7.2035452 11.0315534,7.2035452 C9.4829012,7.2035452 7.34419941,6.5780944 4.61544804,5.3271928 L4.61545374,5.3271803 C3.56828164,4.8471405 2.33023177,5.3068921 1.85019196,6.3540642 C1.82950154,6.3991988 1.81042931,6.4450579 1.79301173,6.4915537 Z" id="shoe"></path>
                </g>
                <polygon id="Pant" fill="#551A1A" points="157.163556 227.802687 221.619157 220.807401 173.849885 2.84217094e-14 116.119435 2.84217094e-14"></polygon>
                <path d="M28.3241967,165.716602 L70.6032259,215.760447 C115.134816,167.123971 141.09685,135.388661 148.489326,120.554518 C155.881803,105.720376 162.527263,65.5355363 168.425707,0 L103.431644,0 C100.209615,57.6553062 98.037743,87.824451 96.916028,90.5074345 C95.794313,93.1904181 72.9303694,118.260141 28.3241967,165.716602 Z" id="Pant" fill="#742E2E"></path>
            </g>
            <g id="Body/Turtle-Neck" transform="translate(24.000000, 53.000000)">
                <path d="M192.842643,105.393439 L223.49217,135.100665 C232.410052,138.880107 239.716986,143.053375 245.412972,147.620468 C246.693914,149.155624 248.088428,152.097061 242.06166,150.78081 C236.034891,149.464559 229.636055,148.34936 228.503335,150.296682 C227.370615,152.244004 230.708267,155.227994 228.61486,157.776537 C227.219255,159.475566 222.525726,154.071288 214.534274,141.563701 L182.66282,122.894141 L192.842643,105.393439 Z M42.9665898,78.5073736 L66.6585889,78.5957155 C48.6140077,136.681228 39.0353652,167.093881 37.9226614,169.833676 C35.419078,175.998214 40.7169972,185.386698 42.9825978,190.432 C35.6036123,193.712603 36.3898511,181.56319 27.0814594,185.865884 C18.5851911,189.793184 12.122101,196.909188 2.3058907,190.891307 C1.0990453,190.151444 -0.2234606,187.365726 2.9718809,185.188835 C10.9326418,179.765405 22.4045806,170.273426 23.9546202,167.149067 C26.0683761,162.888446 32.4056993,133.341215 42.9665898,78.5073736 Z" id="Skin" fill="#4E3620"></path>
                <path d="M109.865055,16.4717855 L119.046294,14.0680578 C138.23983,64.3490778 216.751407,92.8983752 223.068828,111.769722 C225.385593,118.690344 220.577552,122.711882 223.411036,124.633679 L212.067467,134.504669 C209.807937,132.30605 205.810689,137.039162 196.40216,134.796115 C186.993631,132.553069 115.206933,77.5297376 109.865055,16.4717855 Z" id="Clothes-Back" fill="#292828" transform="translate(166.793848, 74.742070) rotate(5.000000) translate(-166.793848, -74.742070) "></path>
                <path d="M130.898715,18.5739694 C129.804096,87.1364235 169.693437,104.618707 160.810425,132.115312 C153.476389,154.817189 83.277582,179.221612 71.1301115,156.968414 C66.2129705,147.960603 63.9820435,137.066293 63.7289172,125.221825 C60.6242781,134.321491 58.1688535,142.155214 56.3626408,148.723 C53.2466712,160.05335 41.1667224,161.85436 41.1667224,166.219217 L25.2515603,161.85436 C26.3310483,155.92452 18.8282563,153.037041 20.8399505,139.789261 C29.8535717,80.4310965 54.0716324,37.4043191 93.494133,10.7089286 L93.914084,4.78662907 C94.075731,2.48987449 96.067603,0.75837109 98.364502,0.91795113 L98.364762,0.91420592 L127.818111,2.95675566 C130.116472,3.11643726 131.850214,5.10907439 131.690533,7.40743524 C131.690446,7.40868309 131.690359,7.40993089 131.690271,7.41117865 L130.898715,18.5739694 Z" id="Clothes-Front" fill="#414141"></path>
            </g>
        </g>
    </g>
</svg>