<?xml version="1.0" encoding="UTF-8"?>
<svg width="262px" height="442px" viewBox="0 0 262 442" version="1.1" xmlns="http://www.w3.org/2000/svg" xmlns:xlink="http://www.w3.org/1999/xlink">
    <!-- Generator: Sketch 61.2 (89653) - https://sketch.com -->
    <title>b3</title>
    <desc>Created with Sketch.</desc>
    <g id="Page-1" stroke="none" stroke-width="1" fill="none" fill-rule="evenodd">
        <g id="b3" transform="translate(0.000000, -5.000000)" fill-rule="nonzero">
            <g id="Bottom/Standing/Sprint" transform="translate(0.000000, 157.435876)">
                <path d="M197.415352,20.3746682 C176.783211,37.2058313 184.912551,185.119696 183.53675,186.979242 C182.925283,187.805708 150.192555,194.788128 85.3385676,207.926503 L88.1597486,219.378627 C164.043714,215.745179 204.192147,211.11221 208.605048,205.479719 C214.923059,197.415605 222.667877,152.265624 231.839503,70.0297763 L197.415352,20.3746682 Z" id="Leg" fill="#5E3B1C" transform="translate(158.589035, 119.876647) rotate(-55.000000) translate(-158.589035, -119.876647) "></path>
                <path d="M96.3052998,195.893516 L101.271367,214.338758 C157.853962,220.945996 195.132772,212.962745 208.236791,200.483347 C216.972804,192.163747 224.738,147.136551 231.532381,65.4017558 L194.707804,12.8108092 C145.588894,49.878461 175.128331,171.568418 173.876413,174.349326 C172.624495,177.130233 142.794519,179.276717 96.3052998,195.893516 Z" id="Pant" fill="#592727" transform="translate(163.918840, 114.763603) rotate(-55.000000) translate(-163.918840, -114.763603) "></path>
                <g id="Accessories/Shoe/Flat-Sneaker" transform="translate(210.905364, 242.688651) rotate(20.000000) translate(-210.905364, -242.688651) translate(179.405364, 230.688651)" fill="#E4E4E4">
                    <path d="M1.90101634,7.5159711 C0.68915471,10.7510048 0.08322389,13.1715576 0.08322389,14.7776295 C0.08322389,16.7309922 0.40863973,19.5814342 1.05947141,23.3289555 C3.32550923,23.3289555 23.6907726,23.3289555 62.1552616,23.3289555 C63.7429247,18.080202 62.8264335,15.2465689 59.4057881,14.8280561 C55.9851428,14.4095434 53.1435546,14.0316599 50.8810236,13.6944057 L22.4842859,1.0349984 C21.9378762,0.7914062 21.2974531,1.0368884 21.053861,1.5832981 C21.0496938,1.5926456 21.0456593,1.6020518 21.0417587,1.6115137 L19.2164382,6.0392887 C16.0498153,7.5167596 13.4766054,8.2554951 11.4968086,8.2554951 C9.8882707,8.2554951 7.66686616,7.6058583 4.8325951,6.3065849 L4.83260102,6.3065719 C3.74493521,5.8079692 2.45901046,6.2854991 1.96040771,7.373165 C1.9389172,7.420045 1.91910746,7.4676773 1.90101634,7.5159711 Z" id="shoe"></path>
                </g>
                <polygon id="Leg" fill="#5E3B1C" points="113.819105 31 57.7666428 165.045997 2.6757965 278.370589 15.6735102 278.370589 157.877815 31"></polygon>
                <g id="Accessories/Shoe/Flat-Sneaker" transform="translate(-0.002627, 265.729269)" fill="#E4E4E4">
                    <path d="M1.90101634,7.5159711 C0.68915471,10.7510048 0.08322389,13.1715576 0.08322389,14.7776295 C0.08322389,16.7309922 0.40863973,19.5814342 1.05947141,23.3289555 C3.32550923,23.3289555 23.6907726,23.3289555 62.1552616,23.3289555 C63.7429247,18.080202 62.8264335,15.2465689 59.4057881,14.8280561 C55.9851428,14.4095434 53.1435546,14.0316599 50.8810236,13.6944057 L22.4842859,1.0349984 C21.9378762,0.7914062 21.2974531,1.0368884 21.053861,1.5832981 C21.0496938,1.5926456 21.0456593,1.6020518 21.0417587,1.6115137 L19.2164382,6.0392887 C16.0498153,7.5167596 13.4766054,8.2554951 11.4968086,8.2554951 C9.8882707,8.2554951 7.66686616,7.6058583 4.8325951,6.3065849 L4.83260102,6.3065719 C3.74493521,5.8079692 2.45901046,6.2854991 1.96040771,7.373165 C1.9389172,7.420045 1.91910746,7.4676773 1.90101634,7.5159711 Z" id="shoe"></path>
                </g>
                <path d="M7.6507602,254.828707 L36.5318239,260.223915 C58.8625814,227.520308 152.317713,93.4245384 162.56418,31 L98.268422,31 C64.0502544,76.1266206 28.9365839,221.58412 7.6507602,254.828707 Z" id="Pant" fill="#672D2D"></path>
            </g>
            <g id="Head/Front/Wavy" transform="translate(128.058315, 54.678974) rotate(14.000000) translate(-128.058315, -54.678974) translate(84.058315, 10.178974)">
                <g id="Head" transform="translate(41.494090, 9.282773)" fill="#5E3B1C">
                    <path d="M8.94989243,37.029905 C3.95849475,31.2228654 0.580212404,24.1062584 1.14472537,16.1318958 C2.77124441,-6.84446329 35.0407011,-1.78995704 41.3177785,9.80653596 C47.5948559,21.403029 46.8489759,50.8184952 38.7364127,52.8911119 C35.5011336,53.7176686 28.6090274,51.6929357 21.5944711,47.5023609 L25.9973733,78.3755619 L0,78.3755619 L8.94989243,37.029905 Z" id="Path"></path>
                </g>
                <path d="M85.266188,24.2961301 C85.008671,22.7929837 84.379317,21.1237559 83.871502,19.7016383 C83.216799,17.8683411 82.226015,16.2153922 81.1356823,14.6575561 C79.082936,11.7246098 76.6204126,9.0760871 73.9015477,6.8778864 C68.9352043,2.8626675 62.6132895,0.5466734 56.3964629,1.2987953 C53.2575808,1.6785145 50.210525,2.8652282 47.6170609,4.8404628 C45.273895,6.6251062 43.0200372,9.2522285 39.9859076,9.4409906 C36.6845248,9.6462146 33.6582851,6.758081 31.0105982,4.9743522 C28.0253195,2.9634504 24.8495054,1.4981662 21.360441,0.9285875 C15.5154523,-0.0252831 10.0245069,1.9320264 5.9962356,6.6851003 C1.7096084,11.7430836 -1.4064431,19.1605934 1.4086128,25.8623801 C1.9318718,27.1081735 2.605041,28.1584371 3.5711479,29.0289011 C4.4571795,29.8271161 5.8104007,30.6763627 6.1696481,31.9517874 C6.5512225,33.3075091 5.4113675,35.0564852 4.9693589,36.2797807 C4.3361434,38.032415 3.8162419,39.872114 4.0010696,41.7771115 C4.3047512,44.9055875 6.288334,47.8921261 8.3828806,49.9483894 C10.5143592,52.0408686 13.1377046,53.2407518 15.9396664,53.7938687 C17.8106067,54.163162 19.7226758,54.3669227 21.6241689,54.2282777 C22.5681166,54.1595039 23.4011005,53.8995901 24.3156705,53.6929029 C25.2050596,53.4918859 25.7021304,53.7260095 26.4567178,54.209438 C29.9620659,56.4555609 33.7311418,57.3245616 37.7787185,56.9905698 C41.1947583,56.708524 45.1320426,55.8879942 47.918728,53.568159 C51.0134597,50.9917024 50.9518504,47.4388775 50.223619,43.6429665 C50.9951616,44.021954 53.1296619,44.2566263 51.8541657,42.7459806 C51.3488692,42.1476852 50.3941776,41.9042333 49.7458536,41.5523163 C48.9909304,41.1426001 48.2244241,40.6130785 47.6382129,39.9447289 C45.271209,37.2460891 47.6618829,31.7540627 50.6369214,30.8490289 C55.0570074,29.5044646 56.0466164,35.700142 59.2019501,37.3027909 C61.0161494,38.2242866 62.9139493,36.964775 64.2732139,35.6787417 C66.0939603,33.9559216 67.3348747,31.6735827 68.4062377,29.3510039 C69.288744,27.4383242 70.1099769,25.4987569 71.0094383,23.5955885 C71.4294556,22.7068336 72.8835682,20.1943952 72.1533223,19.189493 C75.319232,18.5637612 78.8453962,19.8677197 81.5719833,21.5777361 C82.6989121,22.2846795 83.558084,23.0640549 84.159236,24.3120432 C84.287994,24.5794562 84.568342,25.3743788 84.92037,25.4069366 C85.575745,25.4676624 85.330819,24.6738372 85.266188,24.2961301" id="hair" fill="#000000"></path>
            </g>
            <g id="Body/Hoodie" transform="translate(148.078592, 174.711975) rotate(1.000000) translate(-148.078592, -174.711975) translate(33.078592, 74.711975)">
                <path d="M169.658758,103.393636 L204.211727,128.641647 C213.583204,131.157953 221.41277,134.288662 227.700425,138.033775 C229.185678,139.380493 230.980746,142.107822 224.821041,141.636471 C218.661337,141.165121 212.160948,140.944991 211.311029,143.035621 C210.461109,145.126251 214.188629,147.626416 212.470571,150.447224 C211.3252,152.327762 205.914004,147.612382 196.236983,136.301082 L162.02048,122.182257 L169.658758,103.393636 Z M36.9927793,104.265007 L59.6293333,104.353587 C45.6523057,149.251568 38.1067877,173.074156 36.9927793,175.821349 C34.4862604,182.002536 39.7903914,191.416376 42.0586484,196.475303 C34.6710111,199.764766 35.4581718,187.582541 26.1388661,191.896855 C17.632636,195.834761 11.161968,202.969984 1.3342483,196.935851 C0.1259879,196.19399 -1.1980687,193.400748 2.0010193,191.217978 C9.9711142,185.779901 21.4565037,176.262287 23.0083607,173.129491 C25.124595,168.857363 29.7860678,145.902535 36.9927793,104.265007 Z" id="Skin" fill="#5E3B1C"></path>
                <path d="M95.97336,14.3481797 L105.165152,11.9392066 C142.390049,38.6706661 161.612235,94.5999133 206.699051,121.174215 L197.587047,134.66642 C123.172962,132.036954 98.824211,63.8956426 95.97336,14.3481797 Z" id="Coat-Back" fill="#292929" transform="translate(151.336205, 73.302813) rotate(5.000000) translate(-151.336205, -73.302813) "></path>
                <path d="M60.4901498,126.87921 C98.047424,126.87921 125.673768,126.87921 143.369181,126.87921 C147.15633,126.87921 146.442714,121.437641 145.895259,118.691796 C139.576962,87.0014209 114.912731,52.8407301 114.912731,7.730279 L91.006517,4 C71.233006,35.6450688 64.394984,74.6065558 60.4901498,126.87921 Z" id="Shirt" fill="#595959"></path>
                <path d="M61.1561606,35.1056416 C57.684083,34.112508 54.934557,31.7962104 52.9075826,28.1567487 C44.1698189,12.4679683 47.3254343,3.83013266 56.6633326,0.9908273 C66.001231,-1.84847805 74.328681,4 89.206449,4 C90.015676,4 90.756836,4.05048022 91.42993,4.15144065 L98.91382,4.57638967 C120.385916,76.9893825 126.307792,125.302204 116.679448,149.514854 L51.4471954,149.514854 C47.5822537,158.482742 43.8838308,166.027956 40.3519265,172.150498 L22.5773138,172.150498 C20.9044729,118.328424 33.7640886,72.6468053 61.1561606,35.1056416 Z" id="Coat-Front" fill="#373737"></path>
                <path d="M65.651959,112.325174 C67.703501,129.405805 71.037943,141.802365 75.655284,149.514854 L51.4471954,149.514854 C55.9555418,139.054064 60.6904629,126.657504 65.651959,112.325174 L65.651959,112.325174 Z" id="Shade" fill-opacity="0.1" fill="#000000"></path>
            </g>
        </g>
    </g>
</svg>