<?xml version="1.0" encoding="UTF-8"?>
<svg width="310px" height="422px" viewBox="0 0 310 422" version="1.1" xmlns="http://www.w3.org/2000/svg" xmlns:xlink="http://www.w3.org/1999/xlink">
    <!-- Generator: Sketch 61.2 (89653) - https://sketch.com -->
    <title>b4</title>
    <desc>Created with Sketch.</desc>
    <g id="Page-1" stroke="none" stroke-width="1" fill="none" fill-rule="evenodd">
        <g id="b4" fill-rule="nonzero">
            <g id="Head/Front/Chongo" transform="translate(122.000000, 0.000000)">
                <g id="Head" transform="translate(15.000000, 27.000000)" fill="#2E1E14">
                    <path d="M8.26227388,34.4901268 C3.65436435,29.0813759 0.535634794,22.4528771 1.05677633,15.0254539 C2.55833022,-6.37502057 32.3485306,-1.66718886 38.1433414,9.13393292 C43.9381521,19.9350547 43.249578,47.3329958 35.7603014,49.2634576 C32.7735882,50.033323 26.4110012,48.1474609 19.935372,44.244306 L24,73 L0,73 L8.26227388,34.4901268 Z" id="Path"></path>
                </g>
                <path d="M43.6634951,24.3699763 C40.3840534,23.3699763 35.6234565,23.0308443 33.6208149,23.2602642 C34.7600087,20.5308439 35.2120576,17.4899413 34.8435286,14.5290858 C34.4853344,11.6520661 33.1997702,9.2023672 32.0108165,6.6353788 C31.4627695,5.45216518 30.8416903,4.27540043 29.9156982,3.37037661 C28.972405,2.44834378 27.7783223,1.83972796 26.5262119,1.54936581 C25.2448581,1.2521517 23.9050174,1.27689939 22.6216732,1.54662502 C22.0539519,1.66592985 21.5445644,1.92549845 20.9877902,2.0697928 C20.4176191,2.21763405 20.141031,1.86076752 19.7271824,1.50212755 C18.7298424,0.63797369 17.2677456,0.21137833 16.0059895,0.0587004 C14.5903607,-0.11251814 13.1214506,0.10102137 11.7713517,0.56639079 C10.457233,1.01942668 9.1947879,1.75508602 8.2446815,2.82681415 C7.8216464,3.30387223 7.4376536,3.8468704 7.188089,4.44637714 C7.0857368,4.69240304 7.0688185,4.83814839 6.8233112,4.9282719 C6.5962532,5.01170466 6.3306889,5.014123 6.0963584,5.0935252 C3.8305256,5.86094542 1.8932607,7.6116631 0.8384289,9.8595111 C0.2230147,11.1708968 -0.0685013,13.4797836 0.0113441,16.0676663 C0.0911894,18.655549 2.4279109,25.4080735 4.613439,27.8710732 C6.5642539,30.0695065 9.4317213,31.5202692 12.1990566,32.1553256 C10.36223,34.2548487 9.1395162,36.8784262 8.2353419,39.5466625 C7.2532361,42.4450442 6.6454006,45.4566043 6.4209456,48.525076 C6.2077438,51.4404668 6.187993,54.5235291 6.8714634,57.3766879 C7.5108389,60.0448435 8.8781623,62.233684 11.1607604,63.6222954 C12.2063292,64.2583997 13.331284,64.7362639 14.4627459,65.1730163 C15.5778253,65.6034004 16.6962731,66.021854 17.8643276,66.2633656 C20.0749653,66.7202709 22.6221325,66.641836 24.3249903,64.8822511 C24.9387204,64.2479202 25.6136933,63.450835 26.0614552,62.675918 C26.2224473,62.3972445 26.3195173,62.2149822 26.1239229,61.9425963 C25.8895924,61.6163621 25.5105756,61.3663863 25.2095669,61.1111707 C23.493006,59.6560549 22.4304424,57.7134822 22.1625814,55.4049338 C21.8908162,53.0626093 22.5200101,50.03928 24.7973259,49.0170472 C27.6084499,47.7551569 30.7042766,49.2035819 33.2028323,50.5537417 C34.264707,46.805958 36.4450295,43.4314855 39.8633764,41.7123675 C43.6451998,39.8105035 47.9847925,39.5879355 51.871188,37.9561196 C52.8839153,37.5308947 53.9153983,37.0481938 54.6610301,36.1817828 C54.9726032,35.8196765 55.3381465,35.3499541 55.4625461,34.871042 C55.625988,34.2419509 55.220254,33.7145107 54.9068437,33.2240711 C53.2450186,30.623629 46.9429367,25.3699763 43.6634951,24.3699763 Z" id="hair" fill="#000000"></path>
            </g>
            <g id="Bottom/Standing/Jogging" transform="translate(0.000000, 183.000000)">
                <polygon id="Leg" fill="#2E1E14" points="131 0 205.306413 124.226909 261.014844 229.25029 273.013946 229.25029 179.673688 5.090379e-13"></polygon>
                <g id="Accessories/Shoe/Flat-Sneaker" transform="translate(252.000000, 218.000000)" fill="#E4E4E4">
                    <path d="M1.67813181,6.4019242 C0.55937727,9.3884109 0,11.6229931 0,13.1056708 C0,14.908957 0.3004142,17.5404001 0.90124261,21 C2.99318117,21 21.7937852,21 57.3030548,21 C58.768738,16.1545073 57.9226607,13.5385816 54.7648228,13.1522232 C51.606985,12.7658647 48.9837155,12.4170139 46.8950143,12.1056708 L20.6799926,0.4188835 C20.1755635,0.1940064 19.584344,0.4206282 19.359467,0.9250573 C19.35562,0.9336867 19.3518954,0.9423702 19.3482945,0.9511052 L17.6632131,5.038695 C14.7398812,6.4026522 12.3643706,7.0846307 10.5366811,7.0846307 C9.0517269,7.0846307 7.00099246,6.4849054 4.38447792,5.2854549 L4.38448339,5.285443 C3.38038273,4.8251478 2.19325534,5.2659892 1.73296014,6.2700899 C1.71312074,6.3133681 1.69483298,6.3573409 1.67813181,6.4019242 Z" id="shoe"></path>
                </g>
                <path d="M245.543057,212.432889 L268.683113,205.432889 C258.544824,175.124875 246.118911,141.772016 231.405374,105.374313 C216.691837,68.97661 200.890046,33.851839 184,2.84217094e-14 L118.644073,2.84217094e-14 C137.422172,42.821022 157.329475,81.7294172 178.365982,116.725186 C199.402489,151.720954 221.794847,183.623522 245.543057,212.432889 Z" id="Pant" fill="#432320"></path>
                <path d="M126.116628,2.84217094e-14 C119.103498,43.6541888 105.577091,99.4274685 104.300563,101.148648 C103.449544,102.296102 72.8126514,112.562199 12.3898843,131.94694 L14.9818352,142.527938 C87.0358431,132.131776 125.00216,124.066006 128.880787,118.330628 C134.698727,109.72756 163.748486,41.763137 175,2.84217094e-14 L126.116628,2.84217094e-14 Z" id="Leg" fill="#2E1E14"></path>
                <path d="M33.6295078,122.800477 L38.1949469,139.841939 C92.0871466,144.568621 125.108088,141.153296 137.25777,129.595966 C149.407453,118.038636 163.254504,74.839981 178.798925,-1.13686838e-13 L116.478146,-1.13686838e-13 C106.629567,61.2838742 101.12357,93.2121259 99.9601559,95.7847551 C98.7967416,98.3573843 76.6865256,107.362625 33.6295078,122.800477 Z" id="Pant" fill="#572D2A"></path>
                <g id="Accessories/Shoe/Flat-Sneaker" transform="translate(16.057502, 155.157254) rotate(80.000000) translate(-16.057502, -155.157254) translate(-12.942498, 144.657254)" fill="#E4E4E4">
                    <path d="M1.67813181,6.4019242 C0.55937727,9.3884109 0,11.6229931 0,13.1056708 C0,14.908957 0.3004142,17.5404001 0.90124261,21 C2.99318117,21 21.7937852,21 57.3030548,21 C58.768738,16.1545073 57.9226607,13.5385816 54.7648228,13.1522232 C51.606985,12.7658647 48.9837155,12.4170139 46.8950143,12.1056708 L20.6799926,0.4188835 C20.1755635,0.1940064 19.584344,0.4206282 19.359467,0.9250573 C19.35562,0.9336867 19.3518954,0.9423702 19.3482945,0.9511052 L17.6632131,5.038695 C14.7398812,6.4026522 12.3643706,7.0846307 10.5366811,7.0846307 C9.0517269,7.0846307 7.00099246,6.4849054 4.38447792,5.2854549 L4.38448339,5.285443 C3.38038273,4.8251478 2.19325534,5.2659892 1.73296014,6.2700899 C1.71312074,6.3133681 1.69483298,6.3573409 1.67813181,6.4019242 Z" id="shoe"></path>
                </g>
            </g>
            <g id="Body/Pointing-Forward" transform="translate(100.000000, 78.000000)">
                <path d="M81.638039,42.7002327 L116.347821,23.6898218 C122.119845,16.8355222 127.806897,11.5121983 133.408976,7.71984988 C135.120791,7.00519513 138.114322,6.57263502 135.314801,11.541507 C132.515281,16.510379 129.794075,21.8627914 131.22032,23.3935933 C132.646565,24.9243953 136.203036,22.7859324 137.904525,25.3293729 C139.038851,27.0249998 132.962902,29.703613 119.676679,33.3652124 L94.455792,56.4576422 L81.638039,42.7002327 Z M136,58.7398397 L151.246523,50.3642065 C153.385826,42.2239107 155.943102,38.1282526 158.918351,38.0772323 C161.203961,37.0137608 157.223587,47.2997848 161.556381,46.4077826 C165.889175,45.5157805 176.464286,37.6506887 178.286431,39.2475996 C180.982176,41.6101262 178.578484,48.864452 175.746364,52.4730906 C170.453134,59.2176317 166.070569,61.5240612 155.238377,64.5443446 C149.574749,66.1235046 143.451364,69.288795 136.868224,74.0402157 L136,58.7398397 Z" id="Skin" fill="#2E1E14"></path>
                <path d="M65.857986,34.7503025 C77.885997,36.5253162 94.300289,36.5253162 113.103565,28.3861499 L117.443447,44.4123074 C103.805809,54.2415559 85.712714,61.226516 71.287694,58.5246963 C59.919984,56.3955135 56.271725,41.6595451 65.857986,34.7503025 Z" id="Sleeve" fill="#262626" transform="translate(88.898282, 43.748060) rotate(-9.000000) translate(-88.898282, -43.748060) "></path>
                <path d="M81.104267,62.7612342 C94.011057,65.9801048 115.654946,62.184167 146.035933,51.3734208 C153.571674,66.9635189 157.055257,78.0780631 156.486685,84.7170535 C130.424274,98.3310492 108.086537,104.400834 89.683227,104.801533 C90.268059,115.72137 88.938918,126.111847 84.473933,135.605966 C75.29468,155.124265 21.5450578,137.048144 3.4727876,140.605966 C-7.8445994,103.85132 14.0379108,88.9143806 14.0555178,65.3966157 C14.0747993,39.6421572 34.75441,-1.42108547e-13 37.797001,-1.42108547e-13 L65.54375,-1.42108547e-13 C67.0747,19.6690193 74.7804,41.3459827 81.104267,62.7612342 Z" id="Clothes" fill="#3C3C3C"></path>
            </g>
        </g>
    </g>
</svg>