<?xml version="1.0" encoding="UTF-8"?>
<svg width="239px" height="397px" viewBox="0 0 239 397" version="1.1" xmlns="http://www.w3.org/2000/svg" xmlns:xlink="http://www.w3.org/1999/xlink">
    <!-- Generator: Sketch 61.2 (89653) - https://sketch.com -->
    <title>b5</title>
    <desc>Created with Sketch.</desc>
    <g id="Page-1" stroke="none" stroke-width="1" fill="none" fill-rule="evenodd">
        <g id="b5" fill-rule="nonzero">
            <g id="Head/Front/Short-Beard" transform="translate(109.000000, 0.000000)">
                <g id="Head" transform="translate(1.000000, 2.000000)" fill="#4B311A">
                    <path d="M8.26227388,34.4901268 C3.65436435,29.0813759 0.535634794,22.4528771 1.05677633,15.0254539 C2.55833022,-6.37502057 32.3485306,-1.66718886 38.1433414,9.13393292 C43.9381521,19.9350547 43.249578,47.3329958 35.7603014,49.2634576 C32.7735882,50.033323 26.4110012,48.1474609 19.935372,44.244306 L24,73 L0,73 L8.26227388,34.4901268 Z" id="Path"></path>
                </g>
                <path d="M22.1353054,19.388929 C23.0539893,32.1861055 25.4841513,38.5846937 29.4257914,38.5846937 C35.3385979,38.5846937 40.355194,34.8310443 42.9495915,34.8310443 C44.8408192,34.8310443 44.4185661,37.1977405 43.1649615,38.9524776 C42.1306973,40.4001921 37.0939174,41.7956158 37.0939174,44.0400595 C37.0939174,46.2845031 41.0733913,44.5481008 41.0733913,45.8792364 C41.0733913,48.0810973 41.7727779,52.2209894 37.9512241,52.2209894 C34.0836843,52.2209894 22.9947625,50.8115837 21.0944216,45.0714721 C19.8679972,41.366972 19.0750257,33.6905548 18.7155071,22.0422204 C18.4808897,22.0143412 18.2421196,22 18,22 C14.6862915,22 12,24.6862915 12,28 C12,29.6822183 12.6922919,31.2027431 13.807515,32.292214 C12.4191964,34.2518162 10.8632894,36.2988831 9.0803863,38.4111902 C2.3824054,34.3926741 -2.5878774,22.6289713 3.9604861,11.3282783 C5.7704744,5.7922446 9.8680346,2.8352408 14.7073518,1.4622091 C18.6274481,-0.1775797 22.6968791,-0.3624673 26.1320584,0.6205713 C32.8659611,1.1981637 38.8790132,3.2515132 40.5831606,4.4709469 C40.5831606,10.8461712 39.3478701,12.7376815 28.7968056,12.5709519 C26.204238,13.9401362 24.2112029,16.2978697 22.1353054,19.388929 Z" id="Hair" fill="#000000"></path>
            </g>
            <g id="Bottom/Standing/Skinny-Jeans" transform="translate(46.000000, 158.000000)">
                <polygon id="Leg" fill="#4C2222" points="56 9.9475983e-14 92.254962 127.226909 118.706957 221 138 221 109.890974 9.9475983e-14"></polygon>
                <path d="M46.304342,0 C45.465768,65.5742244 42.606247,101.340188 41.725779,107.297892 C40.845311,113.255595 27.5321718,151.156298 1.7863613,221 L21.7726468,221 C54.549033,153.996902 72.845651,116.096199 76.662499,107.297892 C80.479348,98.4995844 92.258515,62.7336205 110,0 L46.304342,0 Z" id="Leg" fill="#633333"></path>
                <g id="Accessories/Shoe/Flat-Pointy" transform="translate(0.000000, 218.000000)" fill="#321212">
                    <path d="M0,21 L1,0 L22,0 C31.9576033,7 44.9576033,12.6666667 61,17 L61,21 L23,21 L10,19 L10,21 L0,21 Z" id="Shoe"></path>
                </g>
                <g id="Accessories/Shoe/Flat-Pointy" transform="translate(116.000000, 218.000000)" fill="#321212">
                    <path d="M0,21 L1,0 L22,0 C31.9576033,7 44.9576033,12.6666667 61,17 L61,21 L23,21 L10,19 L10,21 L0,21 Z" id="Shoe"></path>
                </g>
            </g>
            <g id="Body/Lab-Coat" transform="translate(0.000000, 52.000000)">
                <path d="M186.358872,89.6100216 L216.545493,115.201672 C225.013042,118.13396 232.02085,121.535571 237.568917,125.406506 C238.849565,126.748514 240.32618,129.3882 234.68408,128.555307 C229.04198,127.722415 223.069879,127.100082 222.151873,128.980187 C221.233867,130.860292 224.504819,133.414187 222.740072,135.914152 C221.563574,137.580795 216.885448,132.868337 208.705694,121.776779 L178.108696,106.506639 L186.358872,89.6100216 Z M49.6671405,78.5359191 L67.3789189,81.1081345 C48.3668948,122.357659 38.1743233,144.172797 36.8012044,146.553548 C33.7116869,151.910237 37.3451669,161.240318 38.7655846,166.17944 C31.5871864,168.252341 33.8797238,157.161524 24.8030963,159.927786 C16.5183715,162.452702 9.6817028,168.176559 1.47644547,161.370261 C0.4676573,160.533467 -0.38212307,157.797168 2.82426992,156.202852 C10.8125642,152.230829 22.541227,144.962534 24.3644086,142.283781 C26.8506424,138.630823 35.2848864,117.381535 49.6671405,78.5359191 Z" id="Skin" fill="#4B311A"></path>
                <path d="M118.979272,10.2105422 L129.596123,5.63843187 C147.668356,41.3896079 172.923065,75.3010145 212.52753,102.346035 L204.768287,118.911928 C170.615844,102.621394 138.570612,90.4491188 123.58307,62.8321985 C118.552864,53.5632462 119.64558,21.7613641 118.979272,10.2105422 Z" id="Coat-Back" fill="#404040" transform="translate(165.753401, 62.275180) rotate(5.000000) translate(-165.753401, -62.275180) "></path>
                <path d="M86,111 C117.438326,114.333333 142.183737,114.333333 160.236234,111 C162.472817,110.587022 162.825667,106.842388 161.788454,104.300966 C145.636353,64.7244027 134.560302,30.1916266 134.560302,2.70263734 C131.596594,4.1967882 126.409827,4.42070538 119,3.37438888 C99.086202,31.7026762 89.9325378,64.2061447 86,111 Z" id="Shirt" fill="#323337"></path>
                <path d="M114.049397,1 L122.348425,1 C124.280769,12.364871 130.375512,166.262588 149.190593,216.605966 L47.3853184,216.605966 C49.5924278,170.487243 67.0028709,115.087392 84.6398091,68.7283096 C69.0444357,82.9994875 55.4517855,107.180947 43.8618586,141.272687 L24.7926212,136.377648 C38.9712244,75.2810826 68.1224478,30.374879 112.246291,1.65903686 C112.341837,1.43830769 112.436936,1.21862633 112.531583,1 L113.266004,1 C113.53632,0.826506565 113.807193,0.653614494 114.078622,0.481323787 L114.049397,1 Z" id="Coat-Front" fill="#575757"></path>
            </g>
        </g>
    </g>
</svg>