<?xml version="1.0" encoding="UTF-8"?>
<svg width="222px" height="419px" viewBox="0 0 222 419" version="1.1" xmlns="http://www.w3.org/2000/svg" xmlns:xlink="http://www.w3.org/1999/xlink">
    <!-- Generator: Sketch 61.2 (89653) - https://sketch.com -->
    <title>w1</title>
    <desc>Created with Sketch.</desc>
    <g id="Page-1" stroke="none" stroke-width="1" fill="none" fill-rule="evenodd">
        <g id="w1" transform="translate(0.000000, -21.000000)" fill-rule="nonzero">
            <g id="Head/Front/Pony" transform="translate(86.340027, 55.933139) rotate(15.000000) translate(-86.340027, -55.933139) translate(39.340027, 10.933139)">
                <g id="Head" transform="translate(49.316359, 12.329762)" fill="#D4A181">
                    <path d="M8.61668863,35.9695996 C3.8111203,30.3288374 0.558611141,23.4160055 1.10210733,15.6699789 C2.66807119,-6.64848056 33.7361385,-1.73870383 39.7795208,9.52573796 C45.8229031,20.7901798 45.1047922,49.3633705 37.294259,51.3766405 C34.1794292,52.1795298 27.5439155,50.2127726 20.7905107,46.1421897 L25.0294931,76.1313749 L0,76.1313749 L8.61668863,35.9695996 Z" id="Path"></path>
                </g>
                <path d="M66.5958055,46.7300142 C63.4920461,52.6877108 59.1993682,57.1742704 54.910804,57.1742704 C46.7650435,57.1742704 40.9731951,46.2836037 40.9731951,34.5742741 C40.9731951,34.1628695 40.9813468,33.7542017 40.9974305,33.3485863 C32.3806687,39.2616067 25.7398364,50.9168971 14.3384204,50.9168971 C-1.17310359,50.9168971 -7.33337642,19.6300307 14.3384204,19.6300307 C29.0768888,19.6300307 36.3266534,21.7788973 42.5745342,24.9565643 C43.8068196,21.4825635 45.6858517,18.5617811 47.9835347,16.522099 C48.5362914,15.8998584 49.3837294,15.3045199 50.4770187,14.7526108 C51.1454127,14.3869182 51.8370821,14.0890762 52.5479538,13.8649395 C56.3159666,12.4802383 61.7736991,11.5035692 67.8701001,11.2906782 C69.0084928,11.2509247 70.1265278,11.2392917 71.2172168,11.2539461 C71.2349678,5.5093324 75.8973457,0.8579109 81.6461214,0.8579109 C87.4058745,0.8579109 92.0750769,5.5271133 92.0750769,11.2868664 C92.0750769,16.8570669 87.7081429,21.4073153 82.2111081,21.7007783 C79.0665277,22.6710651 75.0263041,23.3834689 70.5457374,23.683886 C70.9807547,25.3198126 71.2171659,27.1782869 71.2171659,29.2784438 C71.2171659,31.1328609 71.0124871,33.0995714 70.6356035,35.096496 C69.6638219,33.9414273 68.3644328,33.1876728 67.0455838,33.1876728 C63.3562718,33.1876728 60.7882105,36.2226544 60.7882105,39.4450461 C60.7882105,43.5347656 63.1492098,46.4933786 66.5958055,46.7300142 Z" id="hair" fill="#472918"></path>
            </g>
            <g id="Bottom/Standing/Sweatpants" transform="translate(0.000000, 190.706546)">
                <polygon id="Leg" fill="#BA8B72" points="46.49063 9.9475983e-14 84.692767 131.641481 102.661145 230.479916 120.695982 230.479916 102.693287 9.9475983e-14"></polygon>
                <path d="M29.322199,0 C31.987817,68.3870665 30.936536,105.687231 30.339939,111.900493 C29.743342,118.113756 26.356416,159.726021 3.276884,232.565707 L22.034701,232.565707 C52.599745,162.688474 63.269709,121.076209 66.775289,111.900493 C70.280868,102.724778 80.634408,65.4246134 95.750117,0 L29.322199,0 Z" id="Leg" fill="#D4A181"></path>
                <path d="M45.670537,1.13686838e-13 C55.607509,45.2981944 72.794211,117.605619 97.230644,216.922274 L123.608646,216.922274 C125.556962,114.983226 117.268916,47.8902794 102.91609,1.13686838e-13 L45.670537,1.13686838e-13 Z" id="Pant" fill="#9EA2A3"></path>
                <path d="M29.188908,0 C31.799532,68.3870665 25.033935,135.76128 4.0765976,217.987026 L32.220475,217.987026 C62.841711,149.152689 84.788937,82.1109421 99.788408,0 L29.188908,0 Z" id="Pant" fill="#BEC3C4"></path>
                <g id="Accessories/Shoe/Flat-Simple" transform="translate(0.603226, 226.536214)" fill="#191847">
                    <path d="M0,19.5871352 L1.03499318,2.9008065 C7.09473278,4.6731293 14.6846828,3.9778656 23.8048432,0.8150154 C33.6112156,7.7613376 45.956156,12.504481 60.8396644,15.0444457 L60.8396664,15.0444341 C61.9752066,15.2382212 62.7386484,16.315854 62.5448613,17.4513942 C62.532312,17.5249296 62.5158268,17.5977389 62.4954767,17.6695081 L61.0645978,22.7158218 L23.8048432,22.7158218 L2.06998637,22.7158218 L0,19.5871352 Z" id="Shoe"></path>
                </g>
                <g id="Accessories/Shoe/Flat-Simple" transform="translate(98.635407, 226.536214)" fill="#191847">
                    <path d="M0,19.5871352 L1.03499318,2.9008065 C7.09473278,4.6731293 14.6846828,3.9778656 23.8048432,0.8150154 C33.6112156,7.7613376 45.956156,12.504481 60.8396644,15.0444457 L60.8396664,15.0444341 C61.9752066,15.2382212 62.7386484,16.315854 62.5448613,17.4513942 C62.532312,17.5249296 62.5158268,17.5977389 62.4954767,17.6695081 L61.0645978,22.7158218 L23.8048432,22.7158218 L2.06998637,22.7158218 L0,19.5871352 Z" id="Shoe"></path>
                </g>
            </g>
            <g id="Body/Pointing-Forward" transform="translate(124.073956, 164.554595) rotate(10.000000) translate(-124.073956, -164.554595) translate(30.073956, 88.554595)">
                <path d="M85.442905,44.5318824 L121.641581,24.7060096 C127.6612,17.5576911 133.5922,12.0060203 139.434584,8.05099706 C141.219828,7.3056868 144.341768,6.85457179 141.422161,12.0365862 C138.502554,17.2186007 135.664619,22.8006078 137.152044,24.3970743 C138.639469,25.9935408 142.348496,23.7633475 144.122972,26.4158901 C145.305955,28.1842519 138.969376,30.9777657 125.113232,34.7964314 L98.810482,58.8794236 L85.442905,44.5318824 Z M142.136751,61.2595172 L158.037282,52.5246066 C160.268352,44.0351284 162.935323,39.7637848 166.038198,39.710576 C168.42185,38.6014863 164.270736,49.3287349 168.789387,48.3984698 C173.308038,47.4682047 184.336775,39.2657356 186.237082,40.9311468 C189.048462,43.3950152 186.541662,50.9605193 183.588057,54.7239524 C178.067772,61.7578043 173.497213,64.1631694 162.200369,67.3130095 C156.293796,68.9599085 149.907746,72.2609757 143.042218,77.2162112 L142.136751,61.2595172 Z" id="Skin" fill="#D4A181"></path>
                <path d="M68.9859579,36.2409357 C81.5299169,38.0920896 98.6483079,38.0920896 118.258161,29.6037893 L122.784205,46.3173975 C108.561573,56.568277 89.6923639,63.8528608 74.6485759,61.0351451 C62.7932409,58.8146299 58.9884879,43.446554 68.9859579,36.2409357 Z" id="Sleeve" fill="#854EAE" transform="translate(93.014579, 45.624657) rotate(-9.000000) translate(-93.014579, -45.624657) "></path>
                <path d="M84.886236,65.4534116 C98.34667,68.8103574 120.918985,64.8515908 152.603182,53.5771118 C160.462171,69.8359556 164.095185,81.4272642 163.502224,88.3510378 C136.321851,102.549013 113.025925,108.879165 93.833195,109.297052 C94.443114,120.685301 93.056959,131.521483 88.400445,141.422858 C78.827444,161.778405 22.772202,142.926899 3.9247117,146.637336 C-7.8781408,108.306079 14.9430317,92.7284115 14.9613939,68.2018393 C14.9815025,41.3426291 36.548177,-1.42108547e-13 39.721281,-1.42108547e-13 L68.658242,-1.42108547e-13 C70.254863,20.5127326 78.291104,43.1195412 84.886236,65.4534116 Z" id="Clothes" fill="#A664D8"></path>
            </g>
        </g>
    </g>
</svg>