<?xml version="1.0" encoding="UTF-8"?>
<svg width="279px" height="399px" viewBox="0 0 279 399" version="1.1" xmlns="http://www.w3.org/2000/svg" xmlns:xlink="http://www.w3.org/1999/xlink">
    <!-- Generator: Sketch 61.2 (89653) - https://sketch.com -->
    <title>w2</title>
    <desc>Created with Sketch.</desc>
    <g id="Page-1" stroke="none" stroke-width="1" fill="none" fill-rule="evenodd">
        <g id="w2" fill-rule="nonzero">
            <g id="Head/Front/Long" transform="translate(120.000000, 0.000000)">
                <path d="M58.7620125,18.2901669 C62.2090333,30.9923169 66.701116,59.5437798 62.1172687,64.0224659 L33.1172687,64.0224659 C33.1143073,63.9710129 33.1114038,63.9196907 33.108558,63.8684989 C22.3599056,62.678999 14,53.5657798 14,42.5 L14,21.5 C14,9.6258779 23.6258779,0 35.5,0 L37.5,0 C48.2832975,0 57.2124503,7.9385375 58.7620125,18.2901669 Z" id="Hair-Back" fill="#382213"></path>
                <g id="Head" transform="translate(17.000000, 4.000000)" fill="#D4A181">
                    <path d="M8.26227388,34.4901268 C3.65436435,29.0813759 0.535634794,22.4528771 1.05677633,15.0254539 C2.55833022,-6.37502057 32.3485306,-1.66718886 38.1433414,9.13393292 C43.9381521,19.9350547 43.249578,47.3329958 35.7603014,49.2634576 C32.7735882,50.033323 26.4110012,48.1474609 19.935372,44.244306 L24,73 L0,73 L8.26227388,34.4901268 Z" id="Path"></path>
                </g>
                <path d="M31.7499646,34.874834 C32.855742,46.75284 32.4127345,60.3172649 29.1172687,63.5371269 L0.1172687,63.5371269 C-1.4985251,35.4634848 14.1172687,46.3348557 14.1172687,19.9027926 C15.0908529,18.9515442 16.0108111,18.0100255 16.9211179,17.1980592 L16.888877,16.4207004 C21.9105508,6.1402335 28.2813979,1 36.0014183,1 C47.581449,1 51.2365853,6.3883223 54.3486809,10.9630857 C52.0215226,18.9481754 42.9904303,20.1321867 34.9657406,25.1095118 C34.0198539,24.3410043 32.8137154,23.8804131 31.5,23.8804131 C28.4624339,23.8804131 26,26.3428469 26,29.3804131 C26,32.4179792 28.4624339,34.8804131 31.5,34.8804131 C31.5837722,34.8804131 31.6671069,34.8785402 31.7499646,34.874834 Z" id="Hair-Front" fill="#472B18"></path>
            </g>
            <g id="Bottom/Standing/Skirt" transform="translate(0.000000, 155.000000)">
                <path d="M98.4078252,103.088074 C122.397173,109.797924 143.094458,113.152849 160.499678,113.152849 C177.904899,113.152849 194.071673,107.986324 209,97.6532736 C185.524241,90.7662231 166.190908,87.3226979 151,87.3226979 C135.809092,87.3226979 118.278368,92.5778233 98.4078252,103.088074 Z" id="Skirt-Shadow" fill="#1F28CF"></path>
                <path d="M181.266835,122.824327 C181.035521,122.476585 180.840175,122.098311 180.685231,121.688552 C177.478637,113.208488 126.116885,21.7255336 121,5 L178.826087,5 C182.716527,17.7166594 200.227018,97.5197596 202.69132,113.441654 C210.466648,138.556719 226.475271,219.895245 228.518903,225.530129 C230.66877,231.457932 218.572184,237.63317 215.348729,230.345671 C210.219667,218.750031 197.998649,186.665102 192.557135,167.074268 C187.455728,148.707903 183.301821,132.184501 181.266835,122.824327 Z" id="Leg" fill="#BA8B72"></path>
                <path d="M133.957062,133.993595 C110.475313,139.928474 24.5840287,150.657684 18.6897926,152.340533 C12.6264626,154.07166 7.31008232,141.573779 14.8046857,138.866526 C26.7298651,134.558829 59.589132,124.605712 79.5118243,120.544042 C95.5364316,117.27708 110.159082,114.611243 119.976345,113.050159 C119.144649,85.4734403 115.342756,19.2935455 117.834687,5 L169,5 C166.610405,18.7065491 146.410112,118.717714 142.6556,128.728549 C141.464101,132.302484 137.908919,133.8819 133.957062,133.993595 Z" id="Leg" fill="#D4A181"></path>
                <g id="Accessories/Shoe/Flat-Sneaker" transform="translate(16.057502, 163.157254) rotate(80.000000) translate(-16.057502, -163.157254) translate(-12.942498, 152.657254)" fill="#E4E4E4">
                    <path d="M1.67813181,6.4019242 C0.55937727,9.3884109 0,11.6229931 0,13.1056708 C0,14.908957 0.3004142,17.5404001 0.90124261,21 C2.99318117,21 21.7937852,21 57.3030548,21 C58.768738,16.1545073 57.9226607,13.5385816 54.7648228,13.1522232 C51.606985,12.7658647 48.9837155,12.4170139 46.8950143,12.1056708 L20.6799926,0.4188835 C20.1755635,0.1940064 19.584344,0.4206282 19.359467,0.9250573 C19.35562,0.9336867 19.3518954,0.9423702 19.3482945,0.9511052 L17.6632131,5.038695 C14.7398812,6.4026522 12.3643706,7.0846307 10.5366811,7.0846307 C9.0517269,7.0846307 7.00099246,6.4849054 4.38447792,5.2854549 L4.38448339,5.285443 C3.38038273,4.8251478 2.19325534,5.2659892 1.73296014,6.2700899 C1.71312074,6.3133681 1.69483298,6.3573409 1.67813181,6.4019242 Z" id="shoe"></path>
                </g>
                <g id="Accessories/Shoe/Flat-Sneaker" transform="translate(210.000000, 223.000000)" fill="#E4E4E4">
                    <path d="M1.67813181,6.4019242 C0.55937727,9.3884109 0,11.6229931 0,13.1056708 C0,14.908957 0.3004142,17.5404001 0.90124261,21 C2.99318117,21 21.7937852,21 57.3030548,21 C58.768738,16.1545073 57.9226607,13.5385816 54.7648228,13.1522232 C51.606985,12.7658647 48.9837155,12.4170139 46.8950143,12.1056708 L20.6799926,0.4188835 C20.1755635,0.1940064 19.584344,0.4206282 19.359467,0.9250573 C19.35562,0.9336867 19.3518954,0.9423702 19.3482945,0.9511052 L17.6632131,5.038695 C14.7398812,6.4026522 12.3643706,7.0846307 10.5366811,7.0846307 C9.0517269,7.0846307 7.00099246,6.4849054 4.38447792,5.2854549 L4.38448339,5.285443 C3.38038273,4.8251478 2.19325534,5.2659892 1.73296014,6.2700899 C1.71312074,6.3133681 1.69483298,6.3573409 1.67813181,6.4019242 Z" id="shoe"></path>
                </g>
                <path d="M118,5 C140.546839,-1.45073907 161.880173,-1.45073907 182,5 C189,36.9374682 206.00894,49.6134741 209,98.5789257 C175,115.472724 133,86.5304571 98,103.005311 C88,79.9611073 102,24.4645181 118,5 Z" id="Skirt" fill="#2B44FF"></path>
            </g>
            <g id="Body/Long-Sleeve" transform="translate(41.000000, 55.000000)">
                <path d="M174,65.3107899 L213.482876,59.9251648 C221.381053,55.5320264 228.646993,52.5579486 235.280695,51.0029313 C237.147488,50.9484265 240.117196,51.6270536 235.693154,55.3151968 C231.269111,59.00334 226.780296,63.0831966 227.568527,65.0514942 C228.356757,67.0197919 232.471061,66.2874533 233.152638,69.3148625 C233.607023,71.3331352 226.929759,71.6610844 213.120845,70.2987101 L181.083874,83 L174,65.3107899 Z M49.9697919,74.4496834 L71.8671837,74.5318631 C47.8560993,128.56567 35.3363474,156.856914 34.3079281,159.405597 C31.9939846,165.140133 36.8906002,173.873732 38.9845874,178.567103 C32.1645409,181.61887 32.8912241,170.316929 24.2879189,174.319492 C16.4352209,177.972846 10.4616931,184.59248 1.3890352,178.994371 C0.2736052,178.306117 -0.9487243,175.714714 2.0045784,173.68967 C9.3623323,168.644547 19.9653015,159.814672 21.3979297,156.908251 C23.3515741,152.944826 32.8755281,125.458637 49.9697919,74.4496834 Z" id="Skin" fill="#D4A181"></path>
                <path d="M105.473568,9.66927313 L122.652814,9.31280701 C130.188654,47.0006412 155.203746,69.0336905 205.790464,56.4079457 L216.893349,104.819132 C169.489073,115.210412 125.760505,99.6935282 112.595778,48.4746485 C109.187846,35.2156986 106.201379,21.3681777 105.473568,9.66927313 Z" id="Clothes-Back" fill="#AFB9C5" transform="translate(161.183458, 58.591470) rotate(5.000000) translate(-161.183458, -58.591470) "></path>
                <path d="M101.490817,0.0159395536 L127.467604,5.96527657 C127.467604,50.6444246 141.700025,79.150459 149,112 L78.8436541,112 C77.8553795,123.350899 77.2484887,135.017565 76.9322404,147 L24.4016357,147 C36.3053653,83.6639633 61.4301113,34.6639633 99.775873,0 L101.477154,0 L101.490817,0.0159395536 Z" id="Clothes" fill="#C5CFD6"></path>
                <path d="M89.912453,48.2592493 C88.104463,76.1005287 89.167794,97.3474456 93.102445,112 L78.8436541,112 C80.8014235,89.5139021 84.255877,68.2669888 89.91245,48.2592493 L89.912453,48.2592493 Z" id="Shade" fill-opacity="0.1" fill="#000000"></path>
            </g>
        </g>
    </g>
</svg>