<?xml version="1.0" encoding="UTF-8"?>
<svg width="324px" height="419px" viewBox="0 0 324 419" version="1.1" xmlns="http://www.w3.org/2000/svg" xmlns:xlink="http://www.w3.org/1999/xlink">
    <!-- Generator: Sketch 61.2 (89653) - https://sketch.com -->
    <title>w3</title>
    <desc>Created with Sketch.</desc>
    <g id="Page-1" stroke="none" stroke-width="1" fill="none" fill-rule="evenodd">
        <g id="w3" transform="translate(-4.000000, -21.000000)" fill-rule="nonzero">
            <g id="Head/Front/Pony" transform="translate(166.340027, 55.933139) rotate(15.000000) translate(-166.340027, -55.933139) translate(119.340027, 10.933139)">
                <g id="Head" transform="translate(49.316359, 12.329762)" fill="#D4A181">
                    <path d="M8.61668863,35.9695996 C3.8111203,30.3288374 0.558611141,23.4160055 1.10210733,15.6699789 C2.66807119,-6.64848056 33.7361385,-1.73870383 39.7795208,9.52573796 C45.8229031,20.7901798 45.1047922,49.3633705 37.294259,51.3766405 C34.1794292,52.1795298 27.5439155,50.2127726 20.7905107,46.1421897 L25.0294931,76.1313749 L0,76.1313749 L8.61668863,35.9695996 Z" id="Path"></path>
                </g>
                <path d="M66.5958055,46.7300142 C63.4920461,52.6877108 59.1993682,57.1742704 54.910804,57.1742704 C46.7650435,57.1742704 40.9731951,46.2836037 40.9731951,34.5742741 C40.9731951,34.1628695 40.9813468,33.7542017 40.9974305,33.3485863 C32.3806687,39.2616067 25.7398364,50.9168971 14.3384204,50.9168971 C-1.17310359,50.9168971 -7.33337642,19.6300307 14.3384204,19.6300307 C29.0768888,19.6300307 36.3266534,21.7788973 42.5745342,24.9565643 C43.8068196,21.4825635 45.6858517,18.5617811 47.9835347,16.522099 C48.5362914,15.8998584 49.3837294,15.3045199 50.4770187,14.7526108 C51.1454127,14.3869182 51.8370821,14.0890762 52.5479538,13.8649395 C56.3159666,12.4802383 61.7736991,11.5035692 67.8701001,11.2906782 C69.0084928,11.2509247 70.1265278,11.2392917 71.2172168,11.2539461 C71.2349678,5.5093324 75.8973457,0.8579109 81.6461214,0.8579109 C87.4058745,0.8579109 92.0750769,5.5271133 92.0750769,11.2868664 C92.0750769,16.8570669 87.7081429,21.4073153 82.2111081,21.7007783 C79.0665277,22.6710651 75.0263041,23.3834689 70.5457374,23.683886 C70.9807547,25.3198126 71.2171659,27.1782869 71.2171659,29.2784438 C71.2171659,31.1328609 71.0124871,33.0995714 70.6356035,35.096496 C69.6638219,33.9414273 68.3644328,33.1876728 67.0455838,33.1876728 C63.3562718,33.1876728 60.7882105,36.2226544 60.7882105,39.4450461 C60.7882105,43.5347656 63.1492098,46.4933786 66.5958055,46.7300142 Z" id="hair" fill="#471818"></path>
            </g>
            <g id="Bottom/Standing/Jogging" transform="translate(4.000000, 190.706546)">
                <polygon id="Leg" fill="#BA8B72" points="136.576421 0 214.070248 129.55569 272.168323 239.084106 284.682133 239.084106 187.337993 5.30873359e-13"></polygon>
                <g id="Accessories/Shoe/Flat-Sneaker" transform="translate(262.723886, 227.536214)" fill="#E4E4E4">
                    <path d="M1.79301173,6.4915537 C0.62626761,9.6061473 0.04289555,11.9365831 0.04289555,13.4828611 C0.04289555,15.3635003 0.35619618,18.1078205 0.98279745,21.7158218 C3.16447086,21.7158218 22.7715371,21.7158218 59.8039962,21.7158218 C61.3325506,16.662479 60.4501804,13.9343419 57.1568854,13.5314103 C53.8635904,13.1284788 51.1277943,12.7646639 48.9494971,12.4399656 L21.6099678,0.2518671 C21.0839009,0.0173438 20.4673207,0.2536867 20.2327974,0.7797536 C20.2287854,0.7887531 20.2249011,0.7978091 20.2211457,0.8069187 L18.4637818,5.069848 C15.415052,6.4923128 12.9376425,7.2035452 11.0315534,7.2035452 C9.4829012,7.2035452 7.34419941,6.5780944 4.61544804,5.3271928 L4.61545374,5.3271803 C3.56828164,4.8471405 2.33023177,5.3068921 1.85019196,6.3540642 C1.82950154,6.3991988 1.81042931,6.4450579 1.79301173,6.4915537 Z" id="shoe"></path>
                </g>
                <path d="M256.032865,221.545314 L280.165526,214.245045 C269.59235,182.636952 256.63342,147.853404 241.288738,109.894402 C225.944056,71.9353994 209.464438,35.3039322 191.849885,2.84217094e-14 L123.69048,2.84217094e-14 C143.274076,44.6578531 164.035313,85.2352452 185.974193,121.732176 C207.913072,158.229107 231.265963,191.500153 256.032865,221.545314 Z" id="Pant" fill="#5AA0BE"></path>
                <path d="M131.483574,2.84217094e-14 C124.169612,45.5267591 110.062982,103.692464 108.731697,105.487475 C107.844173,106.684149 75.8930942,117.390616 12.8784597,137.606876 L15.5815936,148.641752 C90.7263975,137.799641 130.321301,129.387885 134.366303,123.406484 C140.433807,114.434384 170.729671,43.5545895 182.463825,2.84217094e-14 L131.483574,2.84217094e-14 Z" id="Leg" fill="#D4A181"></path>
                <path d="M35.0291683,128.068071 L39.7904444,145.840535 C95.9943795,150.76997 130.431772,147.208144 143.102622,135.155056 C155.773471,123.101968 170.2145,78.0502828 186.425707,-1.13686838e-13 L121.431644,-1.13686838e-13 C111.160605,63.9126794 105.418425,97.2105109 104.205106,99.8934944 C102.991786,102.576478 79.9331404,111.968003 35.0291683,128.068071 Z" id="Pant" fill="#8DD1EE"></path>
                <g id="Accessories/Shoe/Flat-Sneaker" transform="translate(16.509395, 162.063439) rotate(80.000000) translate(-16.509395, -162.063439) translate(-13.990605, 151.063439)" fill="#E4E4E4">
                    <path d="M1.79301173,6.4915537 C0.62626761,9.6061473 0.04289555,11.9365831 0.04289555,13.4828611 C0.04289555,15.3635003 0.35619618,18.1078205 0.98279745,21.7158218 C3.16447086,21.7158218 22.7715371,21.7158218 59.8039962,21.7158218 C61.3325506,16.662479 60.4501804,13.9343419 57.1568854,13.5314103 C53.8635904,13.1284788 51.1277943,12.7646639 48.9494971,12.4399656 L21.6099678,0.2518671 C21.0839009,0.0173438 20.4673207,0.2536867 20.2327974,0.7797536 C20.2287854,0.7887531 20.2249011,0.7978091 20.2211457,0.8069187 L18.4637818,5.069848 C15.415052,6.4923128 12.9376425,7.2035452 11.0315534,7.2035452 C9.4829012,7.2035452 7.34419941,6.5780944 4.61544804,5.3271928 L4.61545374,5.3271803 C3.56828164,4.8471405 2.33023177,5.3068921 1.85019196,6.3540642 C1.82950154,6.3991988 1.81042931,6.4450579 1.79301173,6.4915537 Z" id="shoe"></path>
                </g>
            </g>
            <g id="Body/Trench-Coat" transform="translate(153.464383, 198.102353) rotate(10.000000) translate(-153.464383, -198.102353) translate(18.464383, 80.102353)">
                <path d="M212.173124,94.1153146 L243.654616,120.804733 C252.485384,123.862803 259.793796,127.410328 265.579851,131.447309 C266.915433,132.846883 268.455388,135.5998 262.571267,134.73118 C256.687146,133.862559 250.458869,133.213532 249.501485,135.174285 C248.5441,137.135038 251.955361,139.798484 250.114915,142.405686 C248.88795,144.14382 244.009153,139.229219 235.478524,127.661882 L203.569051,111.736722 L212.173124,94.1153146 Z M62.7072446,73.4638943 L80.7971874,78.0625522 C56.5815452,118.773292 43.6318712,140.288454 41.9481654,142.60804 C38.1598272,147.827109 40.9113156,157.9002 41.846123,163.177813 C34.1748426,164.545256 37.7616574,153.29197 28.045982,155.171625 C19.1779641,156.887287 11.4631205,162.07869 3.69474158,154.124844 C2.73966504,153.146965 2.15657786,150.216288 5.65599243,148.912227 C14.3743103,145.663337 27.331407,139.403357 29.5143959,136.82375 C32.4912913,133.305996 43.5555742,112.186044 62.7072446,73.4638943 Z" id="Skin" fill="#D4A181" transform="translate(134.887550, 118.378653) rotate(-4.000000) translate(-134.887550, -118.378653) "></path>
                <path d="M218.041997,91.4388947 C222.322135,91.1316164 226.977876,91.840669 231.96947,93.5225255 C234.425683,94.3501164 235.745942,97.0121652 234.918351,99.468378 C234.437693,100.894926 233.338238,101.938296 232.019703,102.400243 C232.974814,103.097038 233.938387,103.789986 234.910523,104.479018 L226.518159,121.611657 C191.202658,104.00331 158.009465,90.7275746 142.884063,61.6576093 C137.807586,51.9009775 139.525829,18.7598762 139.041282,6.70328273 L150.195079,2.12901314 C165.743039,34.2677247 186.784924,65.1009176 218.041997,91.4388947 Z" id="Back-Arm" fill="#D1D1D1"></path>
                <path d="M99.8605991,118.795966 C132.647489,122.397786 158.454369,122.397786 177.281237,118.795966 C179.613759,118.349724 179.511327,108.294692 178.429622,105.548568 C161.584668,62.7842666 150.503922,31.478793 150.503922,1.7756729 C147.413084,3.39017178 142.003828,3.63212462 134.276152,2.50153141 C113.508141,33.1115518 103.961825,68.2330479 99.8605991,118.795966 Z" id="Shirt" fill="#FBFBFB"></path>
                <path d="M93.7686047,123.851994 C92.6551335,122.804333 92.0746685,121.23383 92.3599826,119.615734 L92.9032734,116.534579 C93.2714462,114.446567 94.9672349,112.926105 96.9694489,112.688237 C97.3194625,111.123614 97.6212422,109.569477 97.8704803,108.02672 C99.9758723,94.9945677 96.3786992,82.2161192 96.5476353,69.6676184 C79.7777663,83.9755631 64.7338752,108.681389 51.4159618,143.785095 L31.7190162,137.989136 C32.4705662,135.197044 33.2490397,132.439245 34.0544368,129.715738 C31.7810093,128.424203 29.124502,122.504744 31.0363804,121.514185 C33.0109281,120.491156 35.1027284,119.771114 37.3056195,119.347312 C55.3658661,64.9506232 84.8998655,25.168186 125.907618,-3.99680289e-13 L131.540937,-3.99680289e-13 L137.768209,-3.99680289e-13 C134.276152,46.1801869 182.509698,147.001238 165.761787,233.106043 C134.805794,240.019061 90.6121081,218.510359 47.593608,235.694393 C49.1943273,201.019067 81.2586187,160.283448 93.7686085,123.851985 L93.7686047,123.851994 Z" id="Coat-Front" fill="#FFFFFF"></path>
                <polygon id="Shade-Lapel" fill-opacity="0.1" fill="#000000" points="130.214865 1.04289555 124.834405 17.5888976 135.669457 29.9926784 125.877301 39.740063 149.567348 80.302957 120.597103 39.8211017 130.214865 29.9926784 120.597103 19.0312358"></polygon>
                <path d="M142.619317,95.9463902 C140.315415,95.9463902 138.447734,94.0787093 138.447734,91.774808 C138.447734,89.4709068 140.315415,87.6032259 142.619317,87.6032259 C144.923218,87.6032259 146.790899,89.4709068 146.790899,91.774808 C146.790899,94.0787093 144.923218,95.9463902 142.619317,95.9463902 Z M147.833794,119.932988 C145.529893,119.932988 143.662212,118.065307 143.662212,115.761406 C143.662212,113.457504 145.529893,111.589823 147.833794,111.589823 C150.137695,111.589823 152.005376,113.457504 152.005376,115.761406 C152.005376,118.065307 150.137695,119.932988 147.833794,119.932988 Z M148.87669,143.919585 C146.572789,143.919585 144.705108,142.051904 144.705108,139.748003 C144.705108,137.444102 146.572789,135.576421 148.87669,135.576421 C151.180591,135.576421 153.048272,137.444102 153.048272,139.748003 C153.048272,142.051904 151.180591,143.919585 148.87669,143.919585 Z" id="Buttons" fill-opacity="0.4" fill="#000000"></path>
            </g>
        </g>
    </g>
</svg>